<?xml version="1.0" encoding="iso-8859-1"?>
<!-- Uploaded to: SVG Repo, www.svgrepo.com, Generator: SVG Repo Mixer Tools -->
<svg height="800px" width="800px" version="1.1" id="Layer_1" xmlns="http://www.w3.org/2000/svg" xmlns:xlink="http://www.w3.org/1999/xlink" 
	 viewBox="0 0 512.625 512.625" xml:space="preserve">
<g>
	<path style="fill:#FFE100;" d="M213.713,60.325l15.4,75.9c1.7,6.8,3.4,12.8,6.8,18.8c5.1,8.5,10.2,15.4,20.5,15.4
		c10.2,0,16.2-6.8,20.5-14.5c3.4-5.1,5.1-11.1,6-17.9l16.2-77.7L213.713,60.325L213.713,60.325z"/>
	<polygon style="fill:#FFE100;" points="299.113,60.325 213.713,60.325 256.413,9.125 	"/>
	<path style="fill:#FFE100;" d="M316.113,504.125h-119.4c0-18.8,15.4-34.1,34.1-34.1h51.2
		C300.813,469.925,316.113,485.325,316.113,504.125"/>
	<polygon style="fill:#FFE100;" points="239.313,469.925 273.513,469.925 273.513,213.925 239.313,213.925 	"/>
	<path style="fill:#FFE100;" d="M77.213,128.625l15.4,75.9c1.7,6.8,3.4,12.8,6.8,18.8c4.3,9.4,10.2,16.2,20.5,16.2
		s16.2-6.8,20.5-14.5c3.4-5.1,5.1-11.1,6-17.9l16.2-78.5H77.213z"/>
	<polygon style="fill:#FFE100;" points="162.513,128.625 77.213,128.625 119.913,77.425 	"/>
	<path style="fill:#FFE100;" d="M435.613,128.625l-15.4,75.9c-1.7,6.8-3.4,12.8-6.8,18.8c-5.1,8.5-10.2,15.4-20.5,15.4
		c-10.2,0-16.2-6.8-20.5-14.5c-3.4-5.1-5.1-11.1-6-17.9l-16.1-77.7H435.613z"/>
</g>
<path style="fill:#FFA800;" d="M410.013,128.625l-15.4,75.9c-1.7,6.8-3.4,12.8-6.8,18.8c-2.6,4.3-5.1,8.5-7.7,11.1
	c3.4,2.6,7.7,5.1,12.8,5.1c10.2,0,16.2-6.8,20.5-15.4c3.4-6,5.1-12.8,6.8-18.8l15.4-76.8h-25.6V128.625z"/>
<polygon style="fill:#FFE100;" points="350.313,128.625 435.613,128.625 392.913,77.425 "/>
<g>
	<polygon style="fill:#FFA800;" points="392.913,77.425 384.413,87.625 418.513,128.625 435.613,128.625 	"/>
	<path style="fill:#FFA800;" d="M273.513,60.325l-15.4,75.9c-1.7,6.8-3.4,12.8-6.8,18.8c-2.6,4.3-5.1,8.5-7.7,11.1
		c3.4,2.6,7.7,5.1,12.8,5.1c10.2,0,16.2-6.8,20.5-15.4c3.4-6,5.1-12.8,6.8-18.8l15.4-76.8h-25.6V60.325z"/>
	<polygon style="fill:#FFA800;" points="256.413,9.125 247.913,19.425 282.013,60.325 299.113,60.325 	"/>
</g>
<g>
	<path style="fill:#FFFFFF;" d="M98.513,128.625l15.4,75.9c1.7,6.8,3.4,12.8,6.8,18.8c2.6,4.3,5.1,8.5,7.7,11.1
		c-3.4,3.4-7.7,5.1-12.8,5.1c-10.2,0-16.2-6.8-20.5-15.4c-3.4-6-5.1-12.8-6.8-18.8l-15.4-76.7H98.513z"/>
	<polygon style="fill:#FFFFFF;" points="115.613,77.425 124.113,87.625 90.013,128.625 72.913,128.625 	"/>
</g>
<path style="fill:#FFE100;" d="M276.913,156.825c-4.3,8.5-11.1,14.5-20.5,14.5c-10.2,0-16.2-6.8-20.5-15.4c-1.7-2.6-2.6-5.1-3.4-7.7
	l6.8,65.7h34.1l6.8-64C279.413,152.525,278.613,154.225,276.913,156.825"/>
<path d="M316.113,512.625L316.113,512.625h-119.4c-5.1,0-8.5-3.4-8.5-8.5c0-23.9,18.8-42.7,42.7-42.7h51.2c23,0,41.8,17.9,42.7,41
	c0,0.9,0,0.9,0,1.7C324.712,509.225,321.313,512.625,316.113,512.625z M206.913,495.525h99.8c-3.4-10.2-12.8-17.1-23.9-17.1h-51.2
	C219.713,478.525,210.313,485.325,206.913,495.525z"/>
<path d="M179.613,290.725c-37.5,0-68.3-23-68.3-51.2c0-5.1,3.4-8.5,8.5-8.5s8.5,3.4,8.5,8.5c0,18.8,23,34.1,51.2,34.1
	s51.2-15.4,51.2-34.1c0-5.1,3.4-8.5,8.5-8.5s8.5,3.4,8.5,8.5C247.913,267.725,217.113,290.725,179.613,290.725z"/>
<path d="M119.913,248.125c-17.1,0-24.7-14.5-28.2-20.5c-3.4-6-6-13.7-7.7-21.3l-15.4-75.9c-0.9-2.6,0-5.1,1.7-6.8
	c1.7-2.6,4.3-3.4,6.8-3.4h85.3c2.6,0,5.1,0.9,6.8,3.4c1.7,1.7,2.6,4.3,1.7,6.8l-15.4,78.5c-1.7,7.7-3.4,14.5-6.8,19.6
	C139.513,244.725,128.413,248.125,119.913,248.125z M87.413,137.125l12.8,65.7c0.9,6,3.4,11.9,6,17.1c6,9.4,9.4,11.1,13.7,11.1
	c3.4,0,8.5-0.9,13.7-10.2c1.7-4.3,3.4-9.4,5.1-15.4l13.7-68.3L87.413,137.125L87.413,137.125z"/>
<path d="M162.513,137.125L162.513,137.125h-85.3c-3.4,0-6-1.7-7.7-5.1c-1.7-3.4-0.9-6.8,0.9-9.4l42.7-51.2c3.4-4.3,10.2-4.3,12.8,0
	l41.8,50.3c1.7,1.7,3.4,4.3,3.4,6.8C171.113,133.725,167.713,137.125,162.513,137.125z M95.113,120.125h48.6l-23.9-29
	L95.113,120.125z"/>
<path d="M333.212,290.725c-37.5,0-68.3-23-68.3-51.2c0-5.1,3.4-8.5,8.5-8.5s8.5,3.4,8.5,8.5c0,18.8,23,34.1,51.2,34.1
	s51.2-15.4,51.2-34.1c0-5.1,3.4-8.5,8.5-8.5s8.5,3.4,8.5,8.5C401.513,267.725,370.712,290.725,333.212,290.725z"/>
<path d="M392.913,248.125c-8.5,0-19.6-3.4-28.2-18.8c-3.4-6-5.1-11.9-6.8-19.6l-16.2-79.4c-0.9-2.6,0-5.1,1.7-6.8
	c1.7-1.7,4.3-3.4,6.8-3.4h85.3c2.6,0,5.1,0.9,6.8,3.4c1.7,1.7,2.6,4.3,1.7,6.8l-15.4,75.9c-1.7,7.7-4.3,14.5-7.7,21.3
	C417.712,233.625,410.013,248.125,392.913,248.125z M360.513,137.125l13.7,68.3c0.9,6,2.6,11.1,5.1,15.4
	c5.1,9.4,10.2,10.2,13.7,10.2c4.3,0,7.7-1.7,12.8-11.1c2.6-5.1,5.1-11.1,6-17.1l12.8-65.7L360.513,137.125L360.513,137.125z"/>
<path d="M435.613,137.125h-85.3c-3.4,0-6-1.7-7.7-5.1c-1.7-3.4-0.9-6.8,0.9-9.4l42.7-51.2c3.4-4.3,10.2-4.3,12.8,0l42.7,51.2
	c1.7,2.6,2.6,6,0.9,9.4C441.613,135.425,439.013,137.125,435.613,137.125z M368.212,120.125h48.6l-23.9-29L368.212,120.125z"/>
<path d="M292.413,140.525l15.4-78.5c0-2.6,0-5.1-1.7-6.8c-0.6-1-1.4-1.7-2.3-2.2l-41.4-49.8c-2.6-4.3-9.4-4.3-12.8,0l-42.7,51.2
	c-0.7,1.1-1.3,2.3-1.6,3.6c-0.4,1.3-0.5,2.7,0,4.1l15.4,75.9c0.8,3.4,1.8,6.4,2.8,9.7c0,0.4,0,0.8,0.1,1.2l6.8,65.7
	c0.1,0.5,0.2,0.9,0.4,1.3v254c0,5.1,3.4,8.5,8.5,8.5h34.1c5.1,0,8.5-3.4,8.5-8.5v-256c0-0.5,0-1-0.1-1.4l7.1-59.4
	C290.413,149.325,291.413,145.125,292.413,140.525z M231.013,68.925h57.2c-0.3,1.5-0.6,3-0.9,4.5c-0.8,3.8-1.5,7.6-2.3,11.4
	c-1,5-2,10.1-3,15.1c-1,5.2-2.1,10.5-3.1,15.7c-0.9,4.4-1.8,8.8-2.6,13.2c-0.5,2.5-1,5-1.5,7.6c-0.7,3.3-1.1,6.4-2.3,9.6
	c-2,5.7-5.5,12.6-11.1,15.5c-2,0.9-3.8,1.1-5.2,1.1c-2,0-4-0.8-5.8-1.7c-3.3-1.6-9.2-10.6-10.5-15.7c-2.1-5.3-2.9-10.9-4-16.5
	c-0.8-4.1-1.6-8.2-2.4-12.3c-1-5.1-2-10.3-3-15.4s-2-10.2-3-15.2c-0.8-3.9-1.5-7.9-2.3-11.8c-0.3-1.7-0.7-3.4-1-5
	C224.113,68.925,226.813,68.925,231.013,68.925z M268.813,177.125l-3.4,28.2h-18.8l-2.6-28.2
	C250.113,179.625,258.613,182.225,268.813,177.125z M256.413,22.825l23.9,29h-48.6L256.413,22.825z M264.913,461.425h-17.1v-238.9
	h17.1V461.425z"/>
</svg>